<svg width="38" height="38" viewBox="0 0 38 38" fill="none" xmlns="http://www.w3.org/2000/svg">
<path d="M33.0916 15.5958L34.0257 31.255C34.0574 31.6825 33.8516 31.9675 33.7407 32.0942C33.6141 32.2367 33.3449 32.4583 32.9016 32.4583H28.5791L31.9991 15.5958H33.0916ZM34.8332 9.5L34.8174 9.53167C34.8491 9.91167 34.8174 10.3075 34.7224 10.7033L23.0532 32.1258C22.6732 33.725 21.2482 34.8333 19.6016 34.8333H32.9016C34.9441 34.8333 36.5591 33.1075 36.4007 31.065L34.8332 9.5Z" fill="white"/>
<path d="M18.1292 3.54663C18.2875 2.9133 17.8917 2.26413 17.2584 2.1058C16.625 1.9633 15.9759 2.3433 15.8175 2.97663L15.0259 6.25413H17.4642L18.1292 3.54663Z" fill="white"/>
<path d="M28.5791 3.49913C28.7216 2.84996 28.3099 2.23246 27.6607 2.08996C27.0274 1.94746 26.3941 2.35913 26.2516 3.0083L25.5391 6.2858H27.9774L28.5791 3.49913Z" fill="white"/>
<path d="M34.5484 8.43911C34.0259 7.17245 32.7909 6.26995 31.2709 6.26995H27.9775L27.0909 10.3708C26.9642 10.9249 26.4734 11.3049 25.935 11.3049C25.8559 11.3049 25.7609 11.3049 25.6817 11.2733C25.0484 11.1308 24.6367 10.4974 24.7634 9.86411L25.5392 6.25411H17.4642L16.4667 10.3708C16.34 10.9091 15.8492 11.2733 15.3109 11.2733C15.2159 11.2733 15.1209 11.2574 15.0259 11.2416C14.3925 11.0833 13.9967 10.4499 14.155 9.80078L15.01 6.23828H11.7959C10.2442 6.23828 8.86668 7.25161 8.40752 8.73995L1.74168 30.1941C1.04502 32.4899 2.73918 34.8333 5.13002 34.8333H25.935C27.5817 34.8333 29.0067 33.7249 29.3867 32.1258L34.7225 10.7033C34.8175 10.3074 34.8492 9.91161 34.8175 9.53161C34.7859 9.15161 34.7067 8.77161 34.5484 8.43911ZM23.275 26.5208H10.6084C9.95918 26.5208 9.42085 25.9824 9.42085 25.3333C9.42085 24.6841 9.95918 24.1458 10.6084 24.1458H23.275C23.9242 24.1458 24.4625 24.6841 24.4625 25.3333C24.4625 25.9824 23.9242 26.5208 23.275 26.5208ZM24.8584 20.1874H12.1917C11.5425 20.1874 11.0042 19.6491 11.0042 18.9999C11.0042 18.3508 11.5425 17.8124 12.1917 17.8124H24.8584C25.5075 17.8124 26.0459 18.3508 26.0459 18.9999C26.0459 19.6491 25.5075 20.1874 24.8584 20.1874Z" fill="white"/>
</svg>
