<svg width="38" height="38" viewBox="0 0 38 38" fill="none" xmlns="http://www.w3.org/2000/svg">
<g clip-path="url(#clip0_1_208)">
<path fill-rule="evenodd" clip-rule="evenodd" d="M4.30617 0.791983C3.85722 1.02792 3.71094 1.33757 3.71094 2.052V2.67187H4.07164C5.43645 2.67187 9.2812 3.21493 11.7062 3.75027C13.1324 4.0651 15.9855 4.85717 16.8105 5.16733C16.9458 5.21809 16.9493 5.21119 16.8503 5.08962C16.6444 4.83683 15.6446 4.06006 14.8261 3.51692C12.2528 1.80937 9.05216 0.819147 5.71484 0.698022C4.69337 0.660987 4.53551 0.671526 4.30617 0.791983ZM31.5801 0.716132C31.4576 0.730456 31.0401 0.778178 30.6523 0.822339C28.0757 1.11543 25.2229 2.14462 23.1522 3.52813C22.2992 4.09798 21.1956 4.96642 21.2523 5.02312C21.2711 5.0419 21.7489 4.90853 22.3141 4.72669C23.425 4.3694 25.5598 3.8141 26.7631 3.5694C28.767 3.16186 31.6041 2.7858 33.3428 2.69725L34.2891 2.64901V2.04057C34.2891 1.5315 34.2615 1.39093 34.1206 1.17992C33.8411 0.761479 33.5564 0.666553 32.6191 0.679171C32.1701 0.685257 31.7025 0.701882 31.5801 0.716132ZM0.626777 4.81546C0.54291 4.85257 0.367605 5.00449 0.237129 5.153L0 5.42316V19.14V32.8569L0.168477 33.1091C0.430543 33.5014 0.745379 33.6207 1.52148 33.6217C4.26884 33.6251 8.41299 34.1416 11.3236 34.8433C13.5837 35.3881 16.1146 36.2033 17.7925 36.9269C18.8742 37.3934 19.126 37.4212 19.689 37.1358C21.3326 36.3027 24.1655 35.338 26.627 34.7733C29.5092 34.112 32.3459 33.7576 35.6222 33.6496C37.3645 33.5921 37.5371 33.5498 37.8321 33.1082L38.0012 32.8552L37.982 19.1007L37.9629 5.34619L37.6828 5.06669L37.4027 4.7871L35.4933 4.79505C30.0518 4.81776 23.8659 6.08905 19.3781 8.10713L18.9768 8.28763L18.0792 7.92285C14.4913 6.46497 9.93655 5.38271 5.49219 4.93213C4.14957 4.79601 0.849582 4.71689 0.626777 4.81546ZM7.01367 9.61273C9.19964 9.86567 11.8354 10.3892 13.916 10.9839C15.041 11.3053 15.2387 11.4109 15.4486 11.802C15.5743 12.0364 15.5859 12.2651 15.5859 14.493C15.5859 16.7675 15.5764 16.9466 15.4399 17.2138C15.2992 17.49 14.8132 17.8135 14.542 17.8118C14.4834 17.8115 13.9042 17.6611 13.2549 17.4777C11.1526 16.8839 8.62355 16.3965 6.30859 16.139C5.16726 16.0121 4.91736 15.9253 4.64646 15.562C4.4961 15.3605 4.48942 15.2599 4.46849 12.8902C4.45654 11.5358 4.46537 10.3532 4.48816 10.2621C4.55236 10.0049 4.96256 9.58193 5.22144 9.50601C5.34991 9.46838 5.58867 9.45183 5.75195 9.46927C5.91523 9.48678 6.48301 9.55135 7.01367 9.61273ZM32.8588 9.57154C33.7043 9.95533 33.6813 11.146 32.8215 11.5053C32.7286 11.5441 32.0773 11.6436 31.3742 11.7264C28.9446 12.0127 26.7688 12.4402 24.5667 13.0642C23.3869 13.3985 23.1591 13.4029 22.797 13.0981C22.208 12.6026 22.3177 11.6767 23.0078 11.3195C23.2311 11.204 25.0296 10.7018 26.1621 10.4388C27.9271 10.0289 30.9651 9.54364 32.4336 9.43713C32.4948 9.43268 32.6862 9.49317 32.8588 9.57154ZM32.8588 14.0247C33.7043 14.4085 33.6813 15.5991 32.8215 15.9584C32.7286 15.9972 32.0773 16.0967 31.3742 16.1795C28.9446 16.4658 26.7688 16.8934 24.5667 17.5173C23.3869 17.8516 23.1591 17.856 22.797 17.5512C22.5027 17.3037 22.387 16.9908 22.4343 16.5707C22.5112 15.889 22.8682 15.7101 25.4199 15.0747C27.3256 14.6002 29.1435 14.2709 31.209 14.0259C32.6211 13.8584 32.4928 13.8585 32.8588 14.0247ZM6.41992 18.4465C8.72419 18.6771 11.4645 19.2009 13.7779 19.8529C15.0013 20.1977 15.2793 20.3431 15.4655 20.7353C15.6284 21.0786 15.617 21.3366 15.4238 21.6803C15.2687 21.9562 14.8006 22.2666 14.542 22.2649C14.4834 22.2646 13.9042 22.1142 13.2549 21.9308C11.1592 21.3389 8.64426 20.8537 6.30926 20.5907C5.71766 20.5242 5.14455 20.4235 5.03552 20.3672C4.62709 20.156 4.37512 19.6178 4.48311 19.1874C4.55176 18.9139 4.95447 18.4907 5.22144 18.4115C5.34991 18.3734 5.57197 18.3556 5.71484 18.372C5.85771 18.3884 6.175 18.422 6.41992 18.4465ZM32.8588 18.4778C33.7043 18.8616 33.6813 20.0523 32.8215 20.4116C32.7286 20.4503 32.0773 20.5498 31.3742 20.6327C28.9446 20.9189 26.7688 21.3465 24.5667 21.9705C23.3869 22.3047 23.1591 22.3091 22.797 22.0044C22.208 21.5088 22.3177 20.5829 23.0078 20.2258C23.2311 20.1102 25.0296 19.6081 26.1621 19.345C27.9271 18.9351 30.9651 18.4499 32.4336 18.3434C32.4948 18.3389 32.6862 18.3994 32.8588 18.4778ZM6.41992 22.8996C8.72419 23.1302 11.4645 23.654 13.7779 24.306C15.0013 24.6509 15.2793 24.7963 15.4655 25.1884C15.6284 25.5318 15.617 25.7897 15.4238 26.1335C15.2687 26.4093 14.8006 26.7197 14.542 26.7181C14.4834 26.7177 13.9042 26.5673 13.2549 26.3839C11.1592 25.792 8.64426 25.3068 6.30926 25.0438C5.71766 24.9773 5.14455 24.8766 5.03552 24.8203C4.62709 24.6091 4.37512 24.0709 4.48311 23.6405C4.55176 23.367 4.95447 22.9438 5.22144 22.8646C5.34991 22.8265 5.57197 22.8088 5.71484 22.8252C5.85771 22.8416 6.175 22.8751 6.41992 22.8996ZM32.8588 22.9309C33.7043 23.3147 33.6813 24.5054 32.8215 24.8647C32.7286 24.9034 32.0773 25.003 31.3742 25.0858C28.9446 25.372 26.7688 25.7996 24.5667 26.4236C23.3869 26.7579 23.1591 26.7622 22.797 26.4575C22.208 25.9619 22.3177 25.0361 23.0078 24.6789C23.2311 24.5634 25.0296 24.0612 26.1621 23.7982C27.9271 23.3883 30.9651 22.903 32.4336 22.7965C32.4948 22.7921 32.6862 22.8525 32.8588 22.9309ZM6.41992 27.3527C8.72419 27.5833 11.4645 28.1072 13.7779 28.7592C15.0013 29.104 15.2793 29.2494 15.4655 29.6416C15.6284 29.9849 15.617 30.2429 15.4238 30.5866C15.2687 30.8625 14.8006 31.1728 14.542 31.1712C14.4834 31.1708 13.9042 31.0205 13.2549 30.8371C11.1592 30.2451 8.64426 29.7599 6.30926 29.497C5.71766 29.4304 5.14455 29.3298 5.03552 29.2734C4.62709 29.0622 4.37512 28.524 4.48311 28.0936C4.55176 27.8202 4.95447 27.397 5.22144 27.3178C5.34991 27.2796 5.57197 27.2619 5.71484 27.2783C5.85771 27.2947 6.175 27.3282 6.41992 27.3527ZM32.8588 27.384C33.7043 27.7678 33.6813 28.9585 32.8215 29.3178C32.7286 29.3566 32.0773 29.4561 31.3742 29.5389C28.9446 29.8252 26.7688 30.2527 24.5667 30.8767C23.3869 31.211 23.1591 31.2154 22.797 30.9106C22.208 30.4151 22.3177 29.4892 23.0078 29.132C23.2311 29.0165 25.0296 28.5143 26.1621 28.2513C27.9271 27.8414 30.9651 27.3561 32.4336 27.2496C32.4948 27.2452 32.6862 27.3057 32.8588 27.384Z" fill="white"/>
</g>
<defs>
<clipPath id="clip0_1_208">
<rect width="38" height="38" fill="white"/>
</clipPath>
</defs>
</svg>
