<svg width="38" height="38" viewBox="0 0 38 38" fill="none" xmlns="http://www.w3.org/2000/svg">
<path fill-rule="evenodd" clip-rule="evenodd" d="M7.50485 0.11734C6.84779 0.29398 6.23341 0.665223 5.66022 1.23188C4.79119 2.09104 4.38343 3.14717 4.38061 4.5459L4.37935 5.19531L3.47017 5.19561C2.47379 5.19591 2.2233 5.27651 1.95722 5.68263C1.77004 5.9683 1.79439 6.53325 2.00673 6.83146C2.26204 7.19002 2.54823 7.27344 3.52346 7.27344H4.37935V10.4962V13.719L3.38208 13.7433C2.39274 13.7674 2.38294 13.7694 2.15628 13.9867C1.88323 14.2485 1.75758 14.6493 1.84879 14.9674C2.04057 15.6362 2.26731 15.7518 3.47017 15.7943L4.37935 15.8265V19V22.1735L3.47017 22.2057C2.26731 22.2482 2.04057 22.3638 1.84879 23.0326C1.75758 23.3507 1.88323 23.7515 2.15628 24.0133C2.38294 24.2306 2.39274 24.2326 3.38208 24.2567L4.37935 24.281V27.5038V30.7266H3.52346C2.54823 30.7266 2.26204 30.81 2.00673 31.1685C1.79439 31.4667 1.77004 32.0317 1.95722 32.3174C2.2233 32.7235 2.47379 32.8041 3.47017 32.8044L4.37935 32.8047L4.38061 33.4541C4.38343 34.8528 4.79119 35.909 5.66022 36.7681C5.96207 37.0665 6.39558 37.4032 6.64904 37.5361C7.50352 37.984 7.65566 38 11.0746 38H14.1762V19V0L11.0405 0.00489844C8.54777 0.00875781 7.82273 0.0318398 7.50485 0.11734ZM16.1059 19V38H24.3521C31.6353 38 32.6514 37.9863 33.0542 37.8824C34.4255 37.5289 35.5668 36.4164 36.0175 34.9941L36.1821 34.4746V19V3.52539L36.0175 3.00586C35.5668 1.58361 34.4255 0.471141 33.0542 0.117563C32.6514 0.0137305 31.6353 0 24.3521 0H16.1059V19ZM8.45678 5.40513C8.73785 5.55587 8.98091 5.94344 8.98091 6.24083C8.98091 6.51307 8.69176 6.91541 8.38568 7.06919C8.18559 7.16975 7.93925 7.199 7.29244 7.19907L6.45748 7.19922V6.23438V5.26953H7.33074C8.0347 5.26953 8.25298 5.2958 8.45678 5.40513ZM8.5215 13.9551C9.01335 14.2549 9.09729 14.9257 8.69859 15.3705C8.4478 15.6504 8.11263 15.7303 7.18111 15.7326L6.45748 15.7344V14.7695V13.8047L7.36666 13.805C8.14759 13.8052 8.3105 13.8264 8.5215 13.9551ZM8.20162 22.3377C9.01877 22.5262 9.22316 23.6172 8.5215 24.0449C8.3105 24.1736 8.14759 24.1948 7.36666 24.195L6.45748 24.1953V23.2305V22.2656L7.18111 22.2674C7.57907 22.2684 8.03834 22.3 8.20162 22.3377ZM8.38568 30.9308C8.69176 31.0846 8.98091 31.4869 8.98091 31.7592C8.98091 32.0566 8.73785 32.4441 8.45678 32.5949C8.25298 32.7042 8.0347 32.7305 7.33074 32.7305H6.45748V31.7656V30.8008L7.29244 30.8009C7.93925 30.801 8.18559 30.8302 8.38568 30.9308Z" fill="white"/>
</svg>
