<svg width="38" height="38" viewBox="0 0 38 38" fill="none" xmlns="http://www.w3.org/2000/svg">
<path fill-rule="evenodd" clip-rule="evenodd" d="M33.2125 2.60876C33.1308 2.65322 32.563 3.18366 31.9507 3.78751L30.8375 4.88535L30.355 4.93463C28.8249 5.09094 27.0296 5.80447 25.7561 6.76249C25.4469 6.99509 22.9903 9.3934 20.2614 12.1269L15.326 17.0704L18.1276 19.872L20.9292 22.6736L25.9064 17.7011C28.6439 14.9662 31.0438 12.5168 31.2394 12.2581C31.4351 11.9993 31.7391 11.5175 31.915 11.1875C32.2118 10.6303 32.2397 10.6003 32.3035 10.7673C32.4039 11.03 32.3278 11.8722 32.1766 12.1725C32.1048 12.3151 30.3631 14.1194 28.3061 16.1821C24.6887 19.8096 24.566 19.9418 24.566 20.2134C24.566 20.3678 24.5981 20.5542 24.6374 20.6276C24.7317 20.8039 25.1141 20.9574 25.3253 20.9038C25.4179 20.8802 27.2176 19.1313 29.3246 17.0174C33.4912 12.837 33.4338 12.9057 33.6204 11.8763C33.7712 11.045 33.5853 10.1686 33.1061 9.45092L32.8155 9.01577L32.9159 8.58367C32.9712 8.34602 33.0388 7.92891 33.0662 7.65683L33.1158 7.16216L34.2181 6.04888C34.8244 5.43657 35.3554 4.84156 35.3983 4.72667C35.5107 4.42482 35.494 4.03614 35.3568 3.76294C35.1904 3.43163 34.6021 2.83617 34.273 2.66591C33.9716 2.50998 33.446 2.4817 33.2125 2.60876ZM11.3102 21.0953C8.40735 24.0152 7.94289 24.5678 6.36441 26.9786C4.39709 29.9834 3.33695 32.2577 3.29814 33.5568C3.28173 34.1073 3.2706 34.1385 2.9021 34.6632C2.27221 35.5601 2.4392 35.7276 3.33569 35.098C3.86695 34.7249 3.8835 34.7191 4.47918 34.7014C5.24831 34.6785 5.96415 34.4416 7.41357 33.7305C8.77711 33.0617 9.85358 32.425 11.5035 31.3117C13.6738 29.8472 14.3037 29.3072 17.0513 26.5551L19.5933 24.0091L16.7898 21.2063L13.9862 18.4035L11.3102 21.0953Z" fill="white"/>
</svg>
