<svg width="38" height="38" viewBox="0 0 38 38" fill="none" xmlns="http://www.w3.org/2000/svg">
<g clip-path="url(#clip0_1_195)">
<path fill-rule="evenodd" clip-rule="evenodd" d="M11.9492 2.53712C10.961 2.7502 9.4266 3.14905 8.60938 3.4054C7.349 3.80069 0.499421 6.95529 0.204105 7.27651C-0.202911 7.71915 -0.176489 7.79567 1.58799 11.2904C2.46132 13.0202 3.27483 14.5442 3.39581 14.6768C3.71777 15.0299 3.98555 15.0025 5.9761 14.4125L7.68164 13.9069L7.71875 24.4506C7.74822 32.8253 7.77538 35.0284 7.85086 35.1604C8.08606 35.5721 7.47769 35.5508 19 35.5508C30.5223 35.5508 29.9139 35.5721 30.1491 35.1604C30.2246 35.0284 30.2518 32.8253 30.2813 24.4506L30.3184 13.9069L32.0239 14.4125C33.949 14.983 34.254 15.0191 34.5769 14.7139C34.7101 14.588 35.4075 13.2915 36.3964 11.3314C38.1794 7.79737 38.2056 7.72137 37.7959 7.27717C37.4994 6.95566 30.6457 3.79928 29.3906 3.40622C27.5598 2.83288 25.5038 2.38415 25.1334 2.47715C24.8397 2.55085 24.6013 2.83667 24.4906 3.24769C23.947 5.26763 22.4452 6.79015 20.4324 7.36223C19.6203 7.59305 18.3797 7.59305 17.5677 7.36223C16.1753 6.9665 15.0373 6.14059 14.2885 4.9824C13.9681 4.48685 13.6468 3.78926 13.5492 3.37698C13.3503 2.53771 12.9416 2.32322 11.9492 2.53712ZM15.4775 3.32132C15.9736 4.50926 16.9731 5.34058 18.2207 5.60302C18.8718 5.73996 19.1282 5.73996 19.7793 5.60302C20.9071 5.36582 21.8691 4.63172 22.3734 3.62353C22.5191 3.33237 22.6254 3.08114 22.6095 3.06526C22.5937 3.04945 22.25 3.10385 21.8458 3.18624C20.1487 3.5321 17.8417 3.53388 16.1797 3.19054C15.7919 3.11046 15.4491 3.04448 15.418 3.04396C15.3868 3.04344 15.4136 3.16828 15.4775 3.32132Z" fill="white"/>
</g>
<defs>
<clipPath id="clip0_1_195">
<rect width="38" height="38" fill="white"/>
</clipPath>
</defs>
</svg>
