<svg width="19" height="19" viewBox="0 0 19 19" fill="none" xmlns="http://www.w3.org/2000/svg">
<path d="M8.74784 11.8356L7.28325 13.3002C6.9745 13.6089 6.48367 13.6089 6.167 13.3081C6.07992 13.221 5.99284 13.1418 5.90575 13.0547C5.09034 12.2314 4.35409 11.3685 3.697 10.466C3.04784 9.5635 2.52534 8.661 2.14534 7.76641C1.77325 6.86391 1.58325 6.001 1.58325 5.17766C1.58325 4.63933 1.67825 4.12475 1.86825 3.64975C2.05825 3.16683 2.35909 2.7235 2.77867 2.32766C3.28534 1.82891 3.8395 1.5835 4.42534 1.5835C4.647 1.5835 4.86867 1.631 5.06659 1.726C5.27242 1.821 5.4545 1.9635 5.597 2.16933L7.43367 4.75808C7.57617 4.956 7.67909 5.13808 7.75034 5.31225C7.82159 5.4785 7.86117 5.64475 7.86117 5.79516C7.86117 5.98516 7.80575 6.17516 7.69492 6.35725C7.592 6.53933 7.44159 6.72933 7.25159 6.91933L6.64992 7.54475C6.56284 7.63183 6.52325 7.73475 6.52325 7.86141C6.52325 7.92475 6.53117 7.98016 6.547 8.0435C6.57075 8.10683 6.5945 8.15433 6.61034 8.20183C6.75284 8.46308 6.99825 8.8035 7.34659 9.21516C7.70284 9.62683 8.08284 10.0464 8.4945 10.466C8.57367 10.5452 8.66075 10.6243 8.73992 10.7035C9.05659 11.0122 9.0645 11.5189 8.74784 11.8356Z" fill="white"/>
<path d="M17.393 14.5115C17.393 14.7332 17.3534 14.9627 17.2743 15.1844C17.2505 15.2477 17.2268 15.3111 17.1951 15.3744C17.0605 15.6594 16.8863 15.9286 16.6568 16.1819C16.2688 16.6094 15.8413 16.9182 15.3584 17.1161C15.3505 17.1161 15.3426 17.124 15.3347 17.124C14.8676 17.314 14.3609 17.4169 13.8147 17.4169C13.0072 17.4169 12.1443 17.2269 11.2338 16.839C10.3234 16.4511 9.41301 15.9286 8.51051 15.2715C8.20176 15.0419 7.89301 14.8123 7.6001 14.5669L10.1888 11.9782C10.4105 12.1444 10.6084 12.2711 10.7747 12.3582C10.8143 12.374 10.8618 12.3977 10.9172 12.4215C10.9805 12.4452 11.0438 12.4532 11.1151 12.4532C11.2497 12.4532 11.3526 12.4057 11.4397 12.3186L12.0413 11.7248C12.2393 11.5269 12.4293 11.3765 12.6113 11.2815C12.7934 11.1707 12.9755 11.1152 13.1734 11.1152C13.3238 11.1152 13.4822 11.1469 13.6563 11.2182C13.8305 11.2894 14.0126 11.3923 14.2105 11.5269L16.8309 13.3873C17.0368 13.5298 17.1793 13.6961 17.2663 13.894C17.3455 14.0919 17.393 14.2898 17.393 14.5115Z" fill="white"/>
</svg>
