<svg width="19" height="19" viewBox="0 0 19 19" fill="none" xmlns="http://www.w3.org/2000/svg">
<path d="M13.4583 2.771H5.54158C3.16659 2.771 1.58325 3.9585 1.58325 6.72933V12.271C1.58325 15.0418 3.16659 16.2293 5.54158 16.2293H13.4583C15.8333 16.2293 17.4166 15.0418 17.4166 12.271V6.72933C17.4166 3.9585 15.8333 2.771 13.4583 2.771ZM13.8303 7.59225L11.3524 9.57141C10.8299 9.991 10.1649 10.1968 9.49992 10.1968C8.83492 10.1968 8.162 9.991 7.64742 9.57141L5.1695 7.59225C4.91617 7.38641 4.87659 7.00641 5.0745 6.75308C5.28033 6.49975 5.65242 6.45225 5.90575 6.65808L8.38367 8.63725C8.98533 9.12016 10.0066 9.12016 10.6083 8.63725L13.0862 6.65808C13.3395 6.45225 13.7195 6.49183 13.9174 6.75308C14.1233 7.00641 14.0837 7.38641 13.8303 7.59225Z" fill="white"/>
</svg>
