<svg width="32" height="26" viewBox="0 0 32 26" fill="none" xmlns="http://www.w3.org/2000/svg">
<path d="M0.880018 20.56C3.22668 20.08 5.20002 18.9334 6.80002 17.12C8.34669 15.36 9.12002 13.3867 9.12002 11.2C8.48002 11.9467 7.44002 12.32 6.00002 12.32C4.34668 12.32 2.93335 11.7067 1.76002 10.48C0.586684 9.25338 1.71661e-05 7.76004 1.71661e-05 6.00004C1.71661e-05 4.29337 0.640018 2.85337 1.92002 1.68004C3.14669 0.56004 4.72002 4.00543e-05 6.64002 4.00543e-05C9.14669 4.00543e-05 11.1734 1.17337 12.72 3.52004C13.7867 5.28004 14.32 7.44004 14.32 10C14.32 13.2534 13.2534 16.4 11.12 19.44C8.93335 22.48 6.32002 24.48 3.28002 25.44L0.880018 20.56ZM17.68 20.56C20.0267 20.08 22 18.9334 23.6 17.12C25.1467 15.36 25.92 13.3867 25.92 11.2C25.28 11.9467 24.24 12.32 22.8 12.32C21.1467 12.32 19.7334 11.7067 18.56 10.48C17.3867 9.25338 16.8 7.76004 16.8 6.00004C16.8 4.29337 17.44 2.85337 18.72 1.68004C19.9467 0.56004 21.52 4.00543e-05 23.44 4.00543e-05C25.9467 4.00543e-05 27.9734 1.17337 29.52 3.52004C30.5867 5.28004 31.12 7.44004 31.12 10C31.12 13.2534 30.0534 16.4 27.92 19.44C25.7334 22.48 23.12 24.48 20.08 25.44L17.68 20.56Z" fill="#E53945"/>
</svg>
