<svg style="display: none;" xmlns="http://www.w3.org/2000/svg">
  
  <symbol viewBox="0 0 65 64" id="logo">
    <path d="M30.628.99C39.303 6.688 34.351 32.057 30.628 26.496S21.952-4.707 30.628.99zM11.324 10.01c10.313-1.165 22.723 21.509 16.305 19.613s-26.619-18.559-16.305-19.613zM1.094 31.907c6.097-8.399 31.207-2.265 25.478 1.194S-5.003 40.307 1.094 31.907zM10.97 53.28c-1.716-10.236 20.26-23.845 18.71-17.334S12.686 63.516 10.97 53.28zM30.88 62.261c-7.934-6.692.01-31.289 3.043-25.324s2.858 31.016-3.043 25.324zM52.121 54.831c-10.375.3-20.85-23.33-14.612-20.905s24.987 21.505 14.612 20.905zM63.452 33.57c-6.83 7.815-31.284-.558-25.266-3.486s26.078-2.328 25.266 3.486zM57.563 15.045c-1.163 10.314-26.032 17.359-22.753 11.525s24.638-15.814 22.753-11.525z" stroke-width=".339" stroke="white" fill="inherit"></path>
  </symbol>

  <symbol viewBox="0 0 23 22" id="icon-max">
    <path fill="inherit" d="M11.7471 21.9372C9.48994 21.9372 8.441 21.6207 6.6177 20.3544C5.46441 21.7789 1.81232 22.8922 1.65305 20.9876C1.65305 19.5578 1.32354 18.3496 0.950092 17.0306C0.505251 15.4056 0 13.596 0 10.9739C0 4.71138 5.34908 0 11.6867 0C18.0298 0 22.9999 4.94352 22.9999 11.0319C23.0212 17.0262 17.9867 21.9052 11.7471 21.9372ZM11.8405 5.41308C8.75403 5.26008 6.3486 7.31241 5.81588 10.5307C5.37653 13.195 6.15638 16.4397 6.8209 16.6086C7.13942 16.6824 7.94124 16.0599 8.441 15.5798C9.26737 16.1282 10.2297 16.4576 11.2309 16.5347C14.4289 16.6825 17.1615 14.3435 17.3763 11.2746C17.5013 8.1992 15.039 5.59435 11.8405 5.41836L11.8405 5.41308Z" clip-rule="evenodd" fill-rule="evenodd"></path>
  </symbol>

  <symbol viewBox="0 0 21 21" id="icon-tg">
    <g clip-path="url(#clip0_1_86)">
      <path fill="inherit" d="M19.2952 1.86278L0.690181 9.07439C-0.058518 9.41022 -0.311749 10.0828 0.50922 10.4478L5.28221 11.9724L16.8227 4.80331C17.4528 4.35324 18.0979 4.47326 17.5428 4.96835L7.63109 13.9891L7.31974 17.8067C7.60812 18.3961 8.13616 18.3989 8.47298 18.1059L11.2152 15.4978L15.9117 19.0328C17.0025 19.6819 17.596 19.263 17.8307 18.0733L20.9112 3.4114C21.2311 1.94694 20.6856 1.30168 19.2952 1.86278Z"></path>
    </g>
    <defs>
      <clipPath id="clip0_1_86">
        <rect fill="white" height="21" width="21"></rect>
      </clipPath>
    </defs>
  </symbol>
</svg>
