<svg width="38" height="38" viewBox="0 0 38 38" fill="none" xmlns="http://www.w3.org/2000/svg">
<path fill-rule="evenodd" clip-rule="evenodd" d="M1.61528 7.2412C1.22571 7.45257 1.18749 7.64005 1.18875 9.32934C1.19402 16.3025 3.3451 23.4221 6.99763 28.5557C7.32441 29.0149 7.69996 29.5159 7.83229 29.669L8.07291 29.9473L15.6534 29.9669C22.1936 29.9838 23.2627 29.9716 23.4442 29.8778C23.8216 29.6826 25.4235 27.349 26.2847 25.7398L26.6744 25.0118H28.431C30.7864 25.0118 31.5222 24.8809 32.8171 24.2316C34.3938 23.4409 35.778 21.9042 36.3586 20.2993C36.6882 19.3887 36.8218 18.6293 36.8226 17.6641C36.8241 15.6004 36.0486 13.7677 34.5763 12.3555C33.4392 11.2647 32.3783 10.7368 30.5596 10.3563L30.3555 10.3136V9.08308C30.3555 7.71538 30.2861 7.43075 29.9039 7.23311C29.5848 7.06812 1.91966 7.07606 1.61528 7.2412ZM31.1968 13.1029C31.9031 13.3421 32.4484 13.6859 33.0204 14.2526C33.5638 14.7912 33.9149 15.336 34.2028 16.0876C34.3751 16.5375 34.3947 16.6927 34.3974 17.627C34.4002 18.5897 34.3849 18.7084 34.1887 19.2416C33.6534 20.6963 32.6015 21.7283 31.1341 22.2381C30.5881 22.4278 30.4338 22.4465 29.1866 22.4733C28.4416 22.4894 27.8321 22.4854 27.8321 22.4646C27.8321 22.4439 27.9473 22.1249 28.0881 21.756C28.9988 19.3696 29.8861 15.6791 30.101 13.3841L30.1508 12.8521L30.4202 12.8916C30.5683 12.9134 30.9178 13.0084 31.1968 13.1029Z" fill="white"/>
</svg>
