<svg width="30" height="30" viewBox="0 0 30 30" fill="none" xmlns="http://www.w3.org/2000/svg">
<g clip-path="url(#clip0_1_414)">
<path fill-rule="evenodd" clip-rule="evenodd" d="M1.76643 1.05146C1.06301 1.31145 0.550723 1.77639 0.217676 2.45689C0.0361523 2.82779 0.0292969 2.8684 0.0292969 3.57422C0.0292969 4.289 0.0341016 4.31654 0.229688 4.7168C0.493301 5.25633 0.958067 5.7201 1.49414 5.97861C1.85906 6.15463 1.96998 6.179 2.49985 6.20016C2.99883 6.22002 3.15791 6.20303 3.48135 6.09539C4.15231 5.87215 4.68469 5.40422 5.01416 4.74826L5.16241 4.45312H6.75317H8.34399L7.76087 4.83979C4.4959 7.00477 2.35108 10.4218 1.84793 14.26C1.79836 14.6381 1.75781 14.9848 1.75781 15.0305C1.75781 15.0762 1.6067 15.1869 1.42207 15.2765C0.963634 15.499 0.46793 16.0071 0.225469 16.503C0.0348633 16.893 0.0292969 16.925 0.0292969 17.6367C0.0292969 18.3425 0.0361523 18.3831 0.217676 18.754C0.558223 19.45 1.07022 19.9073 1.79186 20.1601C2.07879 20.2605 2.24485 20.2779 2.75391 20.2605C3.31008 20.2415 3.40852 20.2205 3.7793 20.0414C4.31543 19.7825 4.78026 19.3185 5.04375 18.7793C5.23934 18.379 5.24414 18.3515 5.24414 17.6367C5.24414 16.9294 5.23764 16.891 5.05377 16.5152C4.80487 16.0063 4.43678 15.6043 3.98807 15.3511L3.62555 15.1465L3.66135 14.707C3.75 13.617 4.16057 12.1869 4.71827 11.0251C5.9096 8.5432 8.07575 6.48885 10.6269 5.4215C11.1737 5.19275 12.171 4.86328 12.3168 4.86328C12.3424 4.86328 12.3633 5.1665 12.3633 5.53711V6.21094H15H17.6367V5.53711C17.6367 5.1665 17.6577 4.86328 17.6832 4.86328C17.8469 4.86328 18.8823 5.21314 19.4782 5.46979C21.5464 6.36053 23.3046 7.84148 24.5667 9.75586C25.5032 11.1764 26.2127 13.1589 26.3387 14.707L26.3745 15.1465L26.012 15.3511C25.5632 15.6043 25.1952 16.0063 24.9463 16.5152C24.7624 16.891 24.7559 16.9294 24.7559 17.6367C24.7559 18.3425 24.7627 18.3831 24.9443 18.754C25.2848 19.45 25.7968 19.9073 26.5184 20.1601C26.8054 20.2605 26.9714 20.2779 27.4805 20.2605C28.0367 20.2415 28.1351 20.2205 28.5059 20.0414C29.0449 19.7811 29.508 19.3179 29.7677 18.7793C29.9437 18.4144 29.9681 18.3035 29.9892 17.7736C30.0091 17.2746 29.9921 17.1155 29.8845 16.7921C29.6612 16.1211 29.1933 15.5887 28.5373 15.2593C28.375 15.1777 28.2422 15.0742 28.2422 15.0292C28.2422 14.9842 28.2018 14.6362 28.1524 14.2559C27.6573 10.4422 25.518 7.02832 22.2639 4.85936L21.6545 4.45312H23.2408H24.8271L24.9795 4.7468C25.3246 5.41201 25.851 5.8732 26.5187 6.09539C26.8421 6.20303 27.0012 6.22002 27.5002 6.20016C28.03 6.179 28.141 6.15463 28.5059 5.97861C29.042 5.7201 29.5067 5.25633 29.7703 4.7168C29.9659 4.31654 29.9707 4.289 29.9707 3.57422C29.9707 2.85943 29.9659 2.83189 29.7703 2.43164C29.5081 1.89498 29.0425 1.42939 28.5059 1.16719C28.1056 0.971602 28.0781 0.966797 27.3633 0.966797C26.649 0.966797 26.6207 0.971777 26.2207 1.16672C25.725 1.40842 25.2368 1.88508 24.9979 2.36057L24.8298 2.69531H21.2333H17.6367V1.81641V0.9375H15H12.3633V1.81641V2.69531H8.76159H5.15989L4.99694 2.36039C4.76678 1.88742 4.2787 1.40977 3.7793 1.16883C3.4016 0.986602 3.31811 0.969551 2.72461 0.953262C2.19656 0.93873 2.02336 0.956484 1.76643 1.05146ZM11.3859 13.084L8.67997 17.5947L10.2288 20.6919L11.7776 23.7891H15H18.2224L19.7713 20.6918L21.3201 17.5946L18.5996 13.06L15.879 8.52539L15.879 13.5205L15.8789 18.5156H15.0004H14.1217L14.1068 13.5444L14.0918 8.5732L11.3859 13.084ZM8.84766 27.3047V29.0625H15H21.1524V27.3047V25.5469H15H8.84766V27.3047Z" fill="white"/>
</g>
<defs>
<clipPath id="clip0_1_414">
<rect width="30" height="30" fill="white"/>
</clipPath>
</defs>
</svg>
