<svg width="30" height="30" viewBox="0 0 30 30" fill="none" xmlns="http://www.w3.org/2000/svg">
<path fill-rule="evenodd" clip-rule="evenodd" d="M22.1192 3.53589C21.7619 3.65431 21.3856 3.8588 21.0938 4.09306C20.7198 4.39341 16.8087 7.90798 16.3312 8.37292C15.7436 8.94497 15.7618 8.82931 15.7618 11.986V14.6344L16.4796 14.6589C17.2974 14.6869 17.6591 14.8087 18.0962 15.2037C18.7262 15.7728 18.8729 16.8483 18.4158 17.546C18.3169 17.6969 18.2879 17.7855 18.3327 17.8004C18.3704 17.813 18.525 17.9065 18.6762 18.0083C19.7814 18.7522 19.7747 20.3403 18.663 21.1341C18.4992 21.251 18.4941 21.2659 18.5829 21.3668C18.9655 21.8014 19.0925 22.6249 18.8686 23.2185C18.6409 23.8217 17.9828 24.3504 17.3742 24.4191L17.1222 24.4474L17.2719 24.7743C17.4721 25.2116 17.4822 25.801 17.2966 26.2135C17.2259 26.3708 17.168 26.5091 17.168 26.5212C17.168 26.5332 19.734 26.543 22.8703 26.543C29.23 26.543 28.9693 26.5588 29.3684 26.1493C29.7966 25.7098 29.7657 26.3951 29.7657 17.3419C29.7657 9.22839 29.7652 9.19042 29.6444 8.90958C29.5392 8.66507 29.1988 8.33589 27.0887 6.4378C24.4077 4.02608 24.1425 3.80771 23.6719 3.62425C23.272 3.46833 22.4622 3.42222 22.1192 3.53589ZM23.1153 6.5104C23.4396 6.59946 23.8097 6.99421 23.8981 7.34513C24.1522 8.35452 22.9767 9.17009 22.1278 8.57343C21.3411 8.02054 21.5053 6.83308 22.4122 6.51608C22.6461 6.43429 22.8327 6.43276 23.1153 6.5104ZM10.4686 10.9135C10.4123 10.9547 10.2894 11.258 10.1899 11.6011C10.0921 11.9387 9.9425 12.3427 9.85748 12.4989C9.64338 12.8923 9.13824 13.3408 8.42591 13.77C7.19029 14.5147 6.95709 14.7217 6.34056 15.6219C6.13988 15.9149 5.86384 16.2673 5.72714 16.405C5.39099 16.7436 4.84074 16.9982 4.36214 17.0365L3.98445 17.0669V21.2096V25.3524L5.06386 25.7402C7.28838 26.5394 7.31246 26.5423 11.999 26.5427C16.119 26.5431 16.006 26.5522 16.305 26.1968C16.7446 25.6743 16.5988 24.9276 15.9979 24.6241C15.7475 24.4976 15.6764 24.4922 14.2311 24.4922H12.7253L12.5696 24.3072C12.3941 24.0986 12.4049 23.903 12.6029 23.7012C12.7133 23.5888 12.8159 23.5829 15.1146 23.5547C17.4198 23.5266 17.5174 23.5208 17.6729 23.4046C17.9609 23.1895 18.067 22.9923 18.0938 22.6232C18.1242 22.2027 17.9641 21.8644 17.639 21.6622C17.4357 21.5358 17.3869 21.533 15.1173 21.518C13.5473 21.5077 12.7616 21.4816 12.6748 21.437C12.4992 21.3466 12.402 21.0952 12.4718 20.9117C12.5942 20.5898 12.5252 20.598 15.3752 20.5665L18.0177 20.5372L18.2094 20.4004C18.5835 20.1336 18.7353 19.5772 18.553 19.1409C18.4511 18.8971 18.1633 18.6544 17.884 18.5768C17.7501 18.5396 16.7161 18.5162 15.2016 18.516C12.8324 18.5157 12.7322 18.5112 12.6134 18.4005C12.4478 18.2463 12.4067 18.0949 12.4787 17.9054C12.5957 17.5976 12.747 17.5782 15.0304 17.5782C17.34 17.5782 17.3186 17.5813 17.6133 17.1949C17.7993 16.951 17.8614 16.5267 17.7572 16.211C17.6716 15.9517 17.3597 15.6708 17.0671 15.5895C16.9264 15.5504 15.7855 15.5279 13.9355 15.5277C12.3349 15.5276 10.9826 15.511 10.9304 15.491C10.8405 15.4565 10.6641 15.1799 10.6641 15.0735C10.6641 15.0462 10.7818 14.8447 10.9256 14.6258C11.2484 14.1343 11.3933 13.7553 11.4818 13.1717C11.6049 12.36 11.3974 11.5044 10.9626 11.0303C10.777 10.8279 10.6324 10.7938 10.4686 10.9135ZM23.0676 13.0767C23.1836 13.1856 23.2032 13.2617 23.2032 13.6029C23.2032 13.9905 23.2077 14.0027 23.3643 14.0362C24.1943 14.2138 24.8933 14.7377 25.2379 15.4403C25.4198 15.8111 25.3873 16.0212 25.1254 16.1682C24.8796 16.3062 24.6706 16.1997 24.4756 15.8372C24.2721 15.4588 23.8665 15.096 23.5118 14.9751C23.1227 14.8426 22.4049 14.8544 22.0165 14.9997C21.3001 15.2677 20.924 16.0035 21.1845 16.6271C21.3688 17.0682 21.749 17.3173 22.5001 17.4888C24.0578 17.8447 24.4287 17.9903 24.9001 18.4313C25.3088 18.8136 25.5017 19.2307 25.5348 19.804C25.5702 20.4141 25.4526 20.7609 25.0679 21.1818C24.7227 21.5596 24.1194 21.884 23.567 21.989L23.2032 22.0581V22.4549C23.2032 22.7735 23.1801 22.8747 23.086 22.9688C22.8956 23.1592 22.6466 23.1452 22.4561 22.9332C22.349 22.8139 22.3243 22.7176 22.3243 22.4182V22.0499L22.0037 21.9782C21.0308 21.7605 20.1356 20.9132 20.0008 20.0825C19.9725 19.9083 19.9926 19.8459 20.1174 19.7211C20.2018 19.6367 20.335 19.5704 20.42 19.5704C20.5958 19.5704 20.8594 19.808 20.8594 19.9664C20.8594 20.026 20.9358 20.1951 21.0291 20.3422C21.5751 21.2033 22.9003 21.4575 24.0095 20.914C24.4975 20.6749 24.668 20.4292 24.668 19.965C24.668 19.1293 24.1661 18.7268 22.7637 18.438C21.5831 18.1949 21.0322 17.9221 20.6156 17.374C20.3483 17.0224 20.2432 16.6708 20.2477 16.1426C20.2553 15.2238 20.8904 14.4564 21.9225 14.1189L22.3118 13.9916L22.335 13.5806C22.3544 13.2373 22.3807 13.1514 22.4942 13.0594C22.6747 12.9133 22.9009 12.9201 23.0676 13.0767ZM0.261871 15.4824C0.246286 15.5232 0.240309 17.9693 0.248629 20.918L0.263746 26.2793H1.6407H3.01765V20.8594V15.4395L1.65394 15.4238C0.594684 15.4116 0.283844 15.4246 0.261871 15.4824Z" fill="white"/>
</svg>
