<svg width="30" height="30" viewBox="0 0 30 30" fill="none" xmlns="http://www.w3.org/2000/svg">
<g clip-path="url(#clip0_1_406)">
<path fill-rule="evenodd" clip-rule="evenodd" d="M13.2714 0.333397C11.3818 0.57826 9.61529 1.45728 8.23148 2.84103C7.004 4.06851 6.23877 5.47312 5.84894 7.21406C5.73058 7.74287 5.71283 7.97924 5.71312 9.02349C5.71347 10.3318 5.76896 10.7205 6.10224 11.7481C6.94207 14.3375 9.0242 16.4367 11.6122 17.3032C12.6315 17.6444 13.1759 17.7249 14.4432 17.7217C15.512 17.719 15.6762 17.7045 16.3101 17.5562C17.4363 17.2927 18.2478 16.9529 19.16 16.3625C20.7821 15.3129 21.9925 13.793 22.6477 11.983C23.0245 10.9419 23.1151 10.3683 23.1151 9.02349C23.1151 8.08605 23.0918 7.71299 23.0089 7.32428C22.2322 3.68168 19.4727 1.00342 15.8565 0.382381C15.3757 0.299822 13.7657 0.269295 13.2714 0.333397ZM15.6219 1.90717C18.5258 2.41359 20.8474 4.65726 21.4794 7.56814C21.6244 8.23617 21.6509 9.41092 21.5365 10.1074C21.0418 13.1201 18.8614 15.3996 15.8107 16.0934C15.2137 16.2291 13.6141 16.2291 13.0172 16.0934C9.96451 15.3991 7.78664 13.1161 7.28795 10.0873C7.02931 8.51648 7.41967 6.60416 8.27625 5.24549C9.37359 3.50502 11.1866 2.26693 13.1599 1.91062C13.7889 1.79701 14.9805 1.79531 15.6219 1.90717ZM13.2616 2.78215C10.8631 3.21732 8.92424 5.02459 8.27601 7.42939C8.13773 7.94232 8.12285 8.09865 8.12431 9.02349C8.1256 9.87392 8.14646 10.1242 8.24666 10.4902C8.55591 11.6201 9.02197 12.4999 9.69785 13.23L10.0877 13.651L10.5663 13.165C11.1233 12.5992 11.8065 12.1322 12.4064 11.9072C12.6397 11.8197 12.8242 11.7312 12.8166 11.7105C12.8089 11.6899 12.663 11.5631 12.4923 11.4287C11.6402 10.758 11.1935 9.63211 11.3576 8.5691C11.6326 6.78826 13.4373 5.56324 15.1345 6.00527C16.2574 6.29777 17.169 7.22221 17.4312 8.33443C17.7026 9.48533 17.2382 10.7579 16.2878 11.4673C16.1273 11.5872 15.9963 11.6994 15.9966 11.7166C15.997 11.734 16.1881 11.8197 16.4214 11.9072C17.0211 12.1322 17.7045 12.5992 18.261 13.1644L18.7389 13.6498L19.1043 13.2592C19.7896 12.5266 20.2918 11.5894 20.5734 10.5176C20.6943 10.058 20.7115 9.86238 20.7078 8.9942C20.7041 8.11394 20.6859 7.93195 20.5511 7.42939C19.99 5.33742 18.4697 3.70107 16.4459 3.01084C15.5485 2.70474 14.2157 2.609 13.2616 2.78215ZM13.7987 6.87568C13.1384 7.09471 12.6815 7.48969 12.3987 8.08599C12.2381 8.42484 12.2183 8.52498 12.2195 8.9942C12.2214 9.71765 12.3748 10.1001 12.8561 10.5814C13.329 11.0542 13.719 11.2121 14.4139 11.2121C15.3204 11.2121 16.0228 10.778 16.4194 9.9723C16.5954 9.61476 16.6112 9.53654 16.6112 9.02472C16.6112 8.52217 16.5932 8.42906 16.4299 8.08599C16.0595 7.30804 15.3618 6.84773 14.5045 6.81562C14.2218 6.80502 13.9393 6.82904 13.7987 6.87568ZM1.74615 7.22707C1.18588 7.38486 0.733357 7.8181 0.591912 8.3322C0.540291 8.52 0.52699 10.0375 0.539587 14.3014L0.556521 20.0187L0.802146 20.5123C1.06705 21.0446 1.169 21.1663 3.01125 23.1478C4.45435 24.7 4.67601 25.0478 4.80527 25.962C4.83316 26.1594 4.86767 26.3327 4.88197 26.347C4.92386 26.3889 11.5075 24.608 11.547 24.5442C11.5668 24.5122 11.6429 23.9986 11.7162 23.4029C11.83 22.4771 11.8399 22.2556 11.7837 21.8783C11.6625 21.063 11.6582 21.0578 8.91281 18.3193C6.03621 15.45 6.09404 15.494 5.21472 15.5034C4.19138 15.5144 3.51551 16.1183 3.51551 17.0215C3.51551 17.6337 3.65162 17.8243 5.08763 19.2235C5.78595 19.9039 6.38935 20.5174 6.42849 20.5867C6.53672 20.7787 6.51814 20.909 6.35994 21.0671C6.06299 21.3642 6.01599 21.3325 4.4676 19.7901C2.73334 18.0625 2.6659 17.959 2.6659 17.0228C2.6659 16.5075 2.68523 16.3944 2.82386 16.0985C3.00404 15.714 3.49558 15.164 3.7551 15.0565L3.93023 14.9839L3.9133 11.6961L3.89636 8.40826L3.74045 8.11529C3.34863 7.37894 2.51906 7.00945 1.74615 7.22707ZM27.3339 7.22695C26.8059 7.40185 26.493 7.6647 26.2416 8.14459L26.1034 8.40826L26.0865 11.6961L26.0695 14.9839L26.2447 15.0565C26.5042 15.164 26.9957 15.714 27.1759 16.0985C27.3145 16.3944 27.3339 16.5075 27.3339 17.0228C27.3339 17.959 27.2664 18.0625 25.5322 19.7901C23.9838 21.3325 23.9368 21.3642 23.6398 21.0671C23.4817 20.9091 23.463 20.7782 23.5713 20.588C23.6104 20.5193 24.214 19.9055 24.9125 19.2239C26.3485 17.8229 26.4843 17.6327 26.4843 17.0215C26.4843 16.1183 25.8084 15.5144 24.785 15.5034C23.9057 15.494 23.9636 15.45 21.087 18.3193C18.3415 21.0578 18.3373 21.063 18.216 21.8783C18.1599 22.2556 18.1697 22.4771 18.2836 23.4029C18.3569 23.9986 18.4328 24.5118 18.4522 24.5433C18.4912 24.6064 25.0767 26.3881 25.118 26.3467C25.1321 26.3326 25.1666 26.1594 25.1945 25.962C25.3237 25.0478 25.5454 24.7 26.9885 23.1478C28.8308 21.1663 28.9327 21.0446 29.1976 20.5123L29.4432 20.0187L29.4602 14.3014C29.4729 9.9873 29.4598 8.52129 29.4067 8.32822C29.304 7.9548 28.9509 7.54008 28.5823 7.36002C28.2034 7.17486 27.6645 7.11744 27.3339 7.22695ZM13.6104 12.4506C13.0207 12.5575 12.4234 12.7984 11.9307 13.1279C11.4907 13.4222 10.8397 14.0566 10.8397 14.1912C10.8397 14.3645 12.0493 14.9386 12.8814 15.1603C13.3731 15.2913 13.5698 15.3114 14.3846 15.3142C15.1642 15.3169 15.4094 15.2957 15.8401 15.1879C16.5002 15.0228 17.1261 14.772 17.6404 14.4664L18.0457 14.2256L17.9337 14.0708C17.5798 13.5819 16.7993 12.9921 16.146 12.7202C15.3661 12.3955 14.4507 12.2982 13.6104 12.4506ZM8.15004 26.4003C5.81115 27.0296 4.09699 27.5194 4.03383 27.5766C3.89115 27.7057 3.89736 27.8734 4.06816 28.5059C4.14644 28.796 4.23943 29.1441 4.2747 29.2796C4.3565 29.5935 4.47181 29.7071 4.70883 29.7071C4.8866 29.7071 12.6505 27.661 12.9353 27.5391C13.2044 27.4239 13.21 27.2738 12.9779 26.3923C12.7154 25.3953 12.6683 25.311 12.3765 25.3172C12.2563 25.3198 10.3545 25.8071 8.15004 26.4003ZM17.3208 25.4444C17.2745 25.5169 17.14 25.9435 17.0218 26.3923C16.7898 27.2738 16.7954 27.4243 17.0644 27.5387C17.348 27.6593 25.1208 29.7071 25.295 29.7071C25.528 29.7071 25.6436 29.5921 25.7251 29.2796C25.7603 29.1441 25.8533 28.796 25.9316 28.5059C26.1029 27.8716 26.1087 27.7058 25.9641 27.5749C25.8381 27.4609 17.8921 25.3136 17.594 25.313C17.4616 25.3127 17.3797 25.3521 17.3208 25.4444Z" fill="white"/>
</g>
<defs>
<clipPath id="clip0_1_406">
<rect width="30" height="30" fill="white"/>
</clipPath>
</defs>
</svg>
